HIERARCHY
ROOT Hips
{
	OFFSET 0.000000 0.000000 0.000000
	CHANNELS 6 Xposition Yposition Zposition Zrotation Yrotation Xrotation 
	JOINT LeftUpLeg_virtual
	{
		OFFSET 0.000000 0.000000 0.000000
		CHANNELS 3 Zrotation Yrotation Xrotation
		JOINT LeftUpLeg
		{
			OFFSET 8.479694 -4.795517 -0.379053
			CHANNELS 3 Zrotation Yrotation Xrotation
			JOINT LeftLeg
			{
				OFFSET 0.485052 -32.551468 0.112863
				CHANNELS 3 Zrotation Yrotation Xrotation
				JOINT LeftFoot
				{
					OFFSET 0.438033 -32.635670 -3.012641
					CHANNELS 3 Zrotation Yrotation Xrotation
					JOINT LeftToeBase
					{
						OFFSET 0.970169 -13.225353 11.864223
						CHANNELS 3 Zrotation Yrotation Xrotation
						End Site
						{
							OFFSET 0.000000 0.000000 0.000000
						}
					}
				}
			}
		}
	}
	JOINT RightUpLeg_virtual
	{
		OFFSET 0.000000 0.000000 0.000000
		CHANNELS 3 Zrotation Yrotation Xrotation
		JOINT RightUpLeg
		{
			OFFSET -8.479694 -4.795517 -0.379053
			CHANNELS 3 Zrotation Yrotation Xrotation
			JOINT RightLeg
			{
				OFFSET -0.484100 -32.551483 0.112903
				CHANNELS 3 Zrotation Yrotation Xrotation
				JOINT RightFoot
				{
					OFFSET -0.438985 -32.635651 -3.012681
					CHANNELS 3 Zrotation Yrotation Xrotation
					JOINT RightToeBase
					{
						OFFSET -0.970169 -13.225354 11.864223
						CHANNELS 3 Zrotation Yrotation Xrotation
						End Site
						{
							OFFSET 0.000000 0.000000 0.000000
						}
					}
				}
			}
		}
	}
	JOINT Spine_virtual
	{
		OFFSET 0.000000 0.000000 0.000000
		CHANNELS 3 Zrotation Yrotation Xrotation
		JOINT Spine
		{
			OFFSET 0.000000 7.722015 1.166203
			CHANNELS 3 Zrotation Yrotation Xrotation
			JOINT Spine1
			{
				OFFSET 0.000000 12.024086 0.248766
				CHANNELS 3 Zrotation Yrotation Xrotation
				JOINT Spine2
				{
					OFFSET -0.000000 11.503036 -0.491240
					CHANNELS 3 Zrotation Yrotation Xrotation
					JOINT Neck_virtual
					{
						OFFSET 0.000000 0.000000 0.000000
						CHANNELS 3 Zrotation Yrotation Xrotation
						JOINT Neck
						{
							OFFSET 0.000000 18.430687 -3.123054
							CHANNELS 3 Zrotation Yrotation Xrotation
							JOINT Head
							{
								OFFSET -0.000000 9.051071 1.034021
								CHANNELS 3 Zrotation Yrotation Xrotation
								End Site
								{
									OFFSET 0.000000 0.000000 0.000000
								}
							}
						}
					}
					JOINT LeftShoulder_virtual
					{
						OFFSET 0.000000 0.000000 0.000000
						CHANNELS 3 Zrotation Yrotation Xrotation
						JOINT LeftShoulder
						{
							OFFSET 6.197824 13.665230 -4.064723
							CHANNELS 3 Zrotation Yrotation Xrotation
							JOINT LeftArm
							{
								OFFSET 7.778132 -0.187073 -1.709282
								CHANNELS 3 Zrotation Yrotation Xrotation
								JOINT LeftForeArm
								{
									OFFSET 21.954697 0.000000 -2.041093
									CHANNELS 3 Zrotation Yrotation Xrotation
									JOINT LeftHand
									{
										OFFSET 22.992908 0.000000 -0.870901
										CHANNELS 3 Zrotation Yrotation Xrotation
										End Site
										{
											OFFSET 0.000000 0.000000 0.000000
										}
									}
								}
							}
						}
					}
					JOINT RightShoulder_virtual
					{
						OFFSET 0.000000 0.000000 0.000000
						CHANNELS 3 Zrotation Yrotation Xrotation
						JOINT RightShoulder
						{
							OFFSET -6.197824 13.665230 -4.064723
							CHANNELS 3 Zrotation Yrotation Xrotation
							JOINT RightArm
							{
								OFFSET -7.778132 -0.187073 -1.709282
								CHANNELS 3 Zrotation Yrotation Xrotation
								JOINT RightForeArm
								{
									OFFSET -21.954697 0.000000 -2.041093
									CHANNELS 3 Zrotation Yrotation Xrotation
									JOINT RightHand
									{
										OFFSET -22.992908 0.000000 -0.870901
										CHANNELS 3 Zrotation Yrotation Xrotation
										End Site
										{
											OFFSET 0.000000 0.000000 0.000000
										}
									}
								}
							}
						}
					}
				}
			}
		}
	}
}
MOTION
Frames: 9
Frame Time: 0.033333
13.456391 81.900772 12.887811 179.511319 4.451064 -179.758899 -4.855907 0.786431 10.641481 2.859631 -0.191167 -23.583670 3.985026 5.190883 25.334353 -4.281905 -6.512140 -8.502920 0.000000 0.000000 0.000000 -0.209764 -0.408884 11.174595 0.811632 -9.146029 -16.317901 -0.603447 1.947061 24.873848 7.596851 8.414978 -6.858545 0.000000 0.000000 0.000000 2.233452 2.411919 0.429390 -5.070662 0.696986 -0.822856 1.169500 -3.810168 4.449782 0.076816 0.015512 0.078977 1.200296 -2.892872 4.523041 0.451282 2.793614 -15.353213 0.000000 0.000000 0.000000 2.393989 -1.965152 1.981385 7.888315 2.675918 -2.921855 -13.512110 4.278893 -36.095385 -6.118865 -20.804717 -5.123981 0.000000 0.000000 0.000000 -1.181703 -0.892945 1.458456 10.839570 -3.382102 -2.815139 23.733077 -12.020068 -48.705772 -0.261973 25.624950 -4.518331 0.000000 0.000000 0.000000 
13.421635 81.898796 12.952629 179.379291 4.583746 -179.663509 -4.916975 0.899373 10.592405 2.722215 -0.119530 -23.687156 3.976028 5.577886 25.314057 -4.103602 -6.296767 -8.626457 0.000000 0.000000 0.000000 -0.046440 -0.502868 11.268379 1.019100 -9.301274 -16.245743 -0.538884 1.545744 24.930105 7.604243 8.389631 -6.523499 0.000000 0.000000 0.000000 2.151319 2.516439 0.406154 -5.127847 0.746776 -0.831711 1.134543 -3.758723 4.422928 0.045246 0.073004 0.066978 1.286769 -2.826291 4.617028 0.549166 2.762751 -15.402094 0.000000 0.000000 0.000000 2.440483 -2.024816 2.081927 7.884437 2.601338 -2.749864 -13.494743 4.268296 -36.107098 -6.038701 -20.832331 -5.247301 0.000000 0.000000 0.000000 -1.156621 -0.888947 1.505395 10.850235 -3.388466 -2.831857 23.731690 -12.139027 -48.572211 -0.334125 25.667800 -4.624352 0.000000 0.000000 0.000000 
13.394776 81.899429 13.020409 179.385834 4.586761 -179.676623 -4.887247 1.012224 10.585120 2.688873 -0.165598 -23.698712 3.956923 5.526270 25.242456 -4.143849 -6.322699 -8.557392 0.000000 0.000000 0.000000 -0.047134 -0.446067 11.290835 1.031293 -9.351647 -16.280876 -0.547352 1.525362 24.901649 7.654666 8.375385 -6.496808 0.000000 0.000000 0.000000 2.171837 2.572144 0.491193 -5.107355 0.749771 -0.851435 1.115739 -3.768059 4.424080 0.043387 0.046004 0.095561 1.273340 -2.839278 4.603244 0.577891 2.734548 -15.283183 0.000000 0.000000 0.000000 2.437811 -2.034752 1.986973 7.930074 2.654748 -2.922476 -13.454300 4.273515 -35.884765 -6.121087 -20.840562 -5.212288 0.000000 0.000000 0.000000 -1.169876 -0.868820 1.456834 10.792729 -3.338820 -2.844667 23.771637 -12.214606 -48.592606 -0.356161 25.749188 -4.633809 0.000000 0.000000 0.000000 
13.384597 81.896828 13.079217 179.389168 4.598233 -179.676910 -4.844196 1.101009 10.576107 2.655281 -0.235069 -23.733569 3.934259 5.489102 25.174433 -4.172139 -6.316596 -8.498630 0.000000 0.000000 0.000000 -0.032140 -0.373874 11.304155 1.047441 -9.396990 -16.336378 -0.555106 1.491547 24.888531 7.726203 8.343578 -6.470018 0.000000 0.000000 0.000000 2.213822 2.622728 0.552120 -5.062589 0.756487 -0.870882 1.103422 -3.764091 4.405002 0.042550 0.048195 0.116075 1.245765 -2.858427 4.565622 0.622476 2.725229 -15.213063 0.000000 0.000000 0.000000 2.404426 -2.035559 1.964606 7.918207 2.688986 -2.859544 -13.362834 4.167869 -35.645924 -6.174469 -20.839751 -5.107516 0.000000 0.000000 0.000000 -1.186862 -0.882144 1.438895 10.776430 -3.288908 -2.824424 23.803119 -12.210279 -48.599914 -0.327255 25.850026 -4.544404 0.000000 0.000000 0.000000 
13.388603 81.893250 13.121144 179.354538 4.617522 -179.671787 -4.823331 1.114961 10.550798 2.605523 -0.265467 -23.742508 3.942215 5.512803 25.123348 -4.171630 -6.251939 -8.470884 0.000000 0.000000 0.000000 -0.041936 -0.319667 11.304925 1.036852 -9.422116 -16.395201 -0.570841 1.501156 24.908653 7.795191 8.282241 -6.454777 0.000000 0.000000 0.000000 2.171180 2.656572 0.588876 -5.039431 0.756457 -0.858159 1.105080 -3.749560 4.418489 0.042461 0.077636 0.139358 1.270656 -2.782424 4.471071 0.606865 2.814809 -15.276418 0.000000 0.000000 0.000000 2.419777 -2.015691 1.969465 7.946461 2.732665 -2.977801 -13.387480 3.975402 -35.622367 -6.179876 -20.852518 -5.033059 0.000000 0.000000 0.000000 -1.152499 -1.018311 1.426825 10.750387 -3.185599 -2.792368 23.816188 -12.142668 -48.601133 -0.288357 26.027742 -4.481076 0.000000 0.000000 0.000000 
13.397010 81.887321 13.150078 179.345618 4.663985 -179.686363 -4.808813 1.099863 10.545109 2.571153 -0.268385 -23.750212 3.953298 5.559826 25.152501 -4.156955 -6.152351 -8.465354 0.000000 0.000000 0.000000 -0.043088 -0.308106 11.298002 1.036076 -9.396056 -16.454747 -0.572029 1.503227 24.964640 7.872689 8.218183 -6.443236 0.000000 0.000000 0.000000 2.175723 2.772062 0.648809 -5.029036 0.694302 -0.831977 1.126671 -3.801331 4.401398 0.099043 0.025629 0.103539 1.188182 -2.874400 4.524563 0.683499 2.643378 -15.192525 0.000000 0.000000 0.000000 2.367958 -2.030565 1.971652 7.952724 2.791602 -2.972061 -13.425430 3.937851 -35.193072 -6.137847 -20.980058 -5.012150 0.000000 0.000000 0.000000 -1.255516 -0.896382 1.470705 10.765068 -3.195872 -2.565347 23.918469 -12.012596 -48.751664 -0.395304 26.190664 -4.594542 0.000000 0.000000 0.000000 
13.406386 81.883965 13.184706 179.383225 4.680129 -179.658181 -4.768419 1.023809 10.526006 2.575217 -0.290113 -23.788318 4.009638 5.602727 25.224901 -4.180730 -6.086617 -8.465940 0.000000 0.000000 0.000000 -0.027135 -0.326678 11.270658 1.065742 -9.361870 -16.528513 -0.556935 1.476113 25.042457 7.953732 8.163864 -6.415703 0.000000 0.000000 0.000000 2.245628 2.679057 0.627702 -5.051716 0.699838 -0.792790 1.067149 -3.766936 4.419734 0.104159 0.041062 0.121577 1.219410 -2.864330 4.459504 0.870667 2.810709 -15.145656 0.000000 0.000000 0.000000 2.337094 -2.031558 1.905956 7.932926 2.735780 -2.703388 -13.419831 3.789243 -34.862607 -6.083133 -21.139994 -4.885731 0.000000 0.000000 0.000000 -1.255332 -0.912993 1.383835 10.805738 -3.207833 -2.614400 24.068883 -12.059119 -48.965517 -0.386233 26.404640 -4.470784 0.000000 0.000000 0.000000 
13.420857 81.879951 13.233788 179.357052 4.752056 -179.646953 -4.792316 0.933777 10.526355 2.579103 -0.269514 -23.873924 3.981682 5.457082 25.304994 -4.139218 -5.949448 -8.478569 0.000000 0.000000 0.000000 -0.058523 -0.343120 11.240038 1.080063 -9.315076 -16.615586 -0.543799 1.511448 25.134797 8.015494 8.104452 -6.404636 0.000000 0.000000 0.000000 2.193583 2.831839 0.663131 -5.041515 0.783115 -0.757341 1.104229 -3.847397 4.421474 0.100737 -0.058239 0.095508 1.238750 -2.839796 4.448349 0.936097 2.740416 -15.143301 0.000000 0.000000 0.000000 2.331875 -2.082667 1.938436 8.037729 2.679614 -2.717515 -13.711980 3.711531 -34.517078 -5.975861 -21.310776 -4.691303 0.000000 0.000000 0.000000 -1.264523 -0.936566 1.404769 10.865836 -3.255282 -2.492947 24.289213 -11.973774 -49.030031 -0.530373 26.474170 -4.553850 0.000000 0.000000 0.000000 
13.449326 81.876762 13.302488 179.371013 4.810920 -179.647212 -4.819426 0.869409 10.538648 2.655158 -0.467746 -24.006127 4.084657 5.602016 25.446906 -4.243976 -5.992751 -8.455402 0.000000 0.000000 0.000000 -0.071821 -0.379414 11.229155 1.134199 -9.277178 -16.719646 -0.517661 1.534031 25.226230 8.061963 8.051016 -6.395830 0.000000 0.000000 0.000000 2.150190 2.674443 0.677074 -5.046713 0.594308 -0.736833 1.106975 -3.765616 4.436032 0.095787 0.025074 0.132617 1.225084 -2.837988 4.406700 0.969128 2.690917 -15.031271 0.000000 0.000000 0.000000 2.309923 -1.994840 1.852195 8.113939 2.681773 -2.794868 -14.046225 3.820555 -33.841794 -6.001376 -21.449849 -4.312206 0.000000 0.000000 0.000000 -1.250634 -0.842655 1.335936 10.916737 -3.251379 -2.389996 24.501763 -11.886322 -49.180121 -0.657484 26.484627 -4.485174 0.000000 0.000000 0.000000 
